<?xml version="1.0" encoding="UTF-8"?>
<svg width="21px" height="11px" viewBox="0 0 21 11" version="1.1" xmlns="http://www.w3.org/2000/svg" xmlns:xlink="http://www.w3.org/1999/xlink">
    <!-- Generator: Sketch 60.1 (88133) - https://sketch.com -->
    <title>Arrow-right-white</title>
    <desc>Created with Sketch.</desc>
    <defs>
        <path d="M6.7525767,0.3415091 C7.1162587,0.7571457 7.0741412,1.3889083 6.6585046,1.7525904 L3.661,4.375 L20.0454545,4.3750137 C20.5726354,4.3750137 21,4.822729 21,5.3750137 C21,5.9272985 20.5726354,6.3750137 20.0454545,6.3750137 L3.661,6.375 L6.6585046,8.997437 C7.0741412,9.3611191 7.1162587,9.9928817 6.7525767,10.4085183 C6.3888946,10.8241549 5.757132,10.8662724 5.3414954,10.5025904 L0.45542971,6.227584 C0.18220436,6.0516601 0,5.7356282 0,5.3750137 C0,5.0143992 0.18220436,4.6983673 0.45542971,4.5224434 L5.3414954,0.247437 C5.757132,-0.116245 6.3888946,-0.0741275 6.7525767,0.3415091 Z" id="path-1"></path>
    </defs>
    <g id="Page-1" stroke="none" stroke-width="1" fill="none" fill-rule="evenodd">
        <mask id="mask-2" fill="white">
            <use xlink:href="#path-1"></use>
        </mask>
        <use id="Arrow-right-white" fill="#FFFFFF" transform="translate(10.500000, 5.375014) scale(-1, 1) translate(-10.500000, -5.375014) " xlink:href="#path-1"></use>
    </g>
</svg>