<?xml version="1.0" encoding="UTF-8"?>
<svg width="22px" height="21px" viewBox="0 0 22 21" version="1.1" xmlns="http://www.w3.org/2000/svg" xmlns:xlink="http://www.w3.org/1999/xlink">
    <!-- Generator: Sketch 60.1 (88133) - https://sketch.com -->
    <title>Icon</title>
    <desc>Created with Sketch.</desc>
    <defs>
        <path d="M12.2370383,3.48566781 C13.4430956,2.54316204 14.9560127,2 16.5,2 C20.1322847,2 23,4.86771525 23,8.5 C23,9.79460871 22.6573895,11.0391976 21.9825905,12.2949712 L21.7946399,12.6342365 C20.7405018,14.4788045 19.3121448,16.0136681 15.6552211,19.3794744 L14.1203772,20.7820205 L11.9974457,22.6999793 L8.61653441,19.6215874 C4.74373268,16.0748647 3.27170049,14.5087812 2.18634876,12.6001533 L2.02591214,12.3104768 C1.34549039,11.0496345 1,9.80007243 1,8.5 C1,4.86771525 3.86771525,2 7.5,2 C9.0439873,2 10.5569044,2.54316204 11.7629617,3.48566781 L12,3.67945093 L12.2370383,3.48566781 Z M9.72618685,17.9252895 L12.0025558,20.000022 L13.3930088,18.7394691 C17.572577,14.9256077 19.073534,13.3692988 20.0773832,11.6075585 L20.2208368,11.3482802 C20.7457356,10.3714648 21,9.44780754 21,8.5 C21,5.97228475 19.0277153,4 16.5,4 C15.0821998,4 13.6807139,4.65872111 12.761352,5.73833879 L12,6.63240348 L11.238648,5.73833879 C10.3192861,4.65872111 8.91780015,4 7.5,4 C4.97228475,4 3,5.97228475 3,8.5 C3,9.45188073 3.25645931,10.3794372 3.78597561,11.360647 L3.9559777,11.6649998 C4.88785652,13.2764572 6.25755753,14.738821 9.72618685,17.9252895 Z" id="path-1"></path>
    </defs>
    <g id="Symbols" stroke="none" stroke-width="1" fill="none" fill-rule="evenodd">
        <g id="DS/Controls/Breed-selector" transform="translate(-217.000000, -18.000000)">
            <g id="Icon/Heart/Line">
                <g transform="translate(216.000000, 16.000000)">
                    <mask id="mask-2" fill="white">
                        <use xlink:href="#path-1"></use>
                    </mask>
                    <use id="Mask" fill="#979797" fill-rule="nonzero" xlink:href="#path-1"></use>
                    <g id="Colour/11.-Midnight" mask="url(#mask-2)" fill="#000000" fill-rule="nonzero">
                        <rect id="Rectangle" x="0" y="0" width="24" height="24"></rect>
                    </g>
                </g>
            </g>
        </g>
    </g>
</svg>