<?xml version="1.0" encoding="UTF-8"?>
<svg width="20px" height="19px" viewBox="0 0 20 19" version="1.1" xmlns="http://www.w3.org/2000/svg" xmlns:xlink="http://www.w3.org/1999/xlink">
    <!-- Generator: Sketch 60.1 (88133) - https://sketch.com -->
    <title>Icon</title>
    <desc>Created with Sketch.</desc>
    <defs>
        <path d="M10,18.35 L8.55,17.03 C3.4,12.36 0,9.28 0,5.5 C0,2.42 2.42,-1.77635684e-15 5.5,-1.77635684e-15 C7.24,-1.77635684e-15 8.91,0.81 10,2.09 C11.09,0.81 12.76,-1.77635684e-15 14.5,-1.77635684e-15 C17.58,-1.77635684e-15 20,2.42 20,5.5 C20,9.28 16.6,12.36 11.45,17.04 L10,18.35 L10,18.35 Z" id="path-1"></path>
    </defs>
    <g id="Style-guide-🎨" stroke="none" stroke-width="1" fill="none" fill-rule="evenodd">
        <g id="Components" transform="translate(-787.000000, -5959.000000)">
            <g id="DS/Controls/Breed-selector-Copy" transform="translate(569.000000, 5940.000000)">
                <g id="DS/Controls/Breed-selector">
                    <g id="Icon" transform="translate(218.000000, 19.000000)">
                        <mask id="mask-2" fill="white">
                            <use xlink:href="#path-1"></use>
                        </mask>
                        <use id="Mask" fill="#686868" opacity="0" xlink:href="#path-1"></use>
                        <g id="Colour/6.-Vermillion" mask="url(#mask-2)" fill="#FF5000" fill-rule="nonzero">
                            <g transform="translate(-2.000000, -3.000000)" id="Rectangle">
                                <rect x="0" y="0" width="24" height="24"></rect>
                            </g>
                        </g>
                    </g>
                </g>
            </g>
        </g>
    </g>
</svg>