<?xml version="1.0" encoding="UTF-8"?>
<svg width="20px" height="18px" viewBox="0 0 20 18" version="1.1" xmlns="http://www.w3.org/2000/svg" xmlns:xlink="http://www.w3.org/1999/xlink">
    <!-- Generator: Sketch 60.1 (88133) - https://sketch.com -->
    <title>Icon/Heart/Solid</title>
    <desc>Created with Sketch.</desc>
    <defs>
        <path d="M10.1975319,2.90472317 C11.2025797,2.1193017 12.4633439,1.66666667 13.75,1.66666667 C16.776904,1.66666667 19.1666667,4.05642938 19.1666667,7.08333333 C19.1666667,8.16217392 18.8811579,9.19933131 18.3188254,10.2458093 L18.1621999,10.5285304 C17.2837515,12.0656704 16.093454,13.3447234 13.0460176,16.149562 L11.766981,17.3183504 L9.99787142,18.9166494 L7.18044534,16.3513228 C3.95311057,13.3957206 2.72641707,12.090651 1.8219573,10.5001278 L1.68826011,10.2587306 C1.12124199,9.20802878 0.833333333,8.16672703 0.833333333,7.08333333 C0.833333333,4.05642938 3.22309604,1.66666667 6.25,1.66666667 C7.53665608,1.66666667 8.79742031,2.1193017 9.80246809,2.90472317 L10,3.06620911 L10.1975319,2.90472317 Z M8.10515571,14.9377412 L10.0021298,16.666685 L11.1608407,15.6162242 C14.6438142,12.4380064 15.8946117,11.1410824 16.7311526,9.67296545 L16.8506973,9.45690017 C17.288113,8.64288735 17.5,7.87317295 17.5,7.08333333 C17.5,4.97690396 15.8564294,3.33333333 13.75,3.33333333 C12.5684999,3.33333333 11.4005949,3.8822676 10.63446,4.78194899 L10,5.5270029 L9.36554003,4.78194899 C8.59940509,3.8822676 7.43150013,3.33333333 6.25,3.33333333 C4.14357062,3.33333333 2.5,4.97690396 2.5,7.08333333 C2.5,7.87656728 2.71371609,8.64953097 3.15497967,9.46720582 L3.29664808,9.72083315 C4.07321377,11.0637144 5.21463127,12.2823509 8.10515571,14.9377412 Z" id="path-1"></path>
    </defs>
    <g id="Key-Screens-for-MVP" stroke="none" stroke-width="1" fill="none" fill-rule="evenodd">
        <g id="Tablet---Preferences---01" transform="translate(-293.000000, -953.000000)">
            <g id="Story-2" transform="translate(117.000000, 792.000000)">
                <g id="DS/Button/Like" transform="translate(150.000000, 146.000000)">
                    <g id="Label" transform="translate(26.000000, 14.000000)">
                        <g id="Like">
                            <g id="Icon/Heart/Line">
                                <mask id="mask-2" fill="white">
                                    <use xlink:href="#path-1"></use>
                                </mask>
                                <use id="Mask" fill="#979797" fill-rule="nonzero" xlink:href="#path-1"></use>
                                <g id="Colour/6.-Vermillion" mask="url(#mask-2)" fill="#FF5000" fill-rule="nonzero">
                                    <rect id="Rectangle" x="0" y="0" width="20" height="20"></rect>
                                </g>
                            </g>
                        </g>
                    </g>
                </g>
            </g>
        </g>
    </g>
</svg>