<svg xmlns="http://www.w3.org/2000/svg" width="27.05" height="27.05" viewBox="0 0 27.05 27.05">
  <path id="Path_3" data-name="Path 3" d="M390.5,508.975A13.525,13.525,0,1,0,404.025,522.5,13.54,13.54,0,0,0,390.5,508.975Zm0,16.95a5.224,5.224,0,1,1,5.225-5.225A5.231,5.231,0,0,1,390.5,525.925Zm-8.716,2.563c.684-1.171,1.1-1.88,4.1-2.172a7.248,7.248,0,0,0,9.274-.035c3.343.267,3.771,1,4.478,2.206q.143.247.31.521a11.45,11.45,0,0,1-18.668.292C381.454,529.032,381.625,528.76,381.784,528.488Zm15.991-7.788a7.275,7.275,0,1,0-13.487,3.772,5.249,5.249,0,0,0-4.19,2.839,11.307,11.307,0,0,1-1.073-4.811,11.475,11.475,0,0,1,22.95,0,11.364,11.364,0,0,1-.894,4.423c-.858-1.323-1.867-2.13-4.33-2.52A7.236,7.236,0,0,0,397.775,520.7Z" transform="translate(-376.975 -508.975)"/>
</svg>
