<svg xmlns="http://www.w3.org/2000/svg" viewBox="0 0 40.789 25.793"><defs><style>.a{fill:#6c6bbd;}.b{fill:#d32011;}.c{fill:#0099df;}.d{fill:#fff;}</style></defs><g transform="translate(20.395 12.896)"><g transform="translate(-20.394 -12.896)"><rect width="40.789" height="25.793"/><g transform="translate(6.166 1.749)"><path class="a" d="M75.675,28.675H68.027V14.931h7.648Z" transform="translate(-57.708 -13.062)"/><path class="b" d="M36.249,15.96a8.726,8.726,0,0,1,3.338-6.872,8.741,8.741,0,1,0,0,13.744,8.726,8.726,0,0,1-3.338-6.872" transform="translate(-25.444 -7.219)"/><path class="c" d="M97.942,15.958A8.74,8.74,0,0,1,83.8,22.83a8.741,8.741,0,0,0,0-13.744,8.74,8.74,0,0,1,14.142,6.872" transform="translate(-69.659 -7.216)"/><path class="d" d="M60.476,85.654a1.077,1.077,0,0,1,.36.063l-.156.476a.818.818,0,0,0-.315-.058c-.33,0-.5.213-.5.6v1.3h-.505V85.712h.5v.282a.685.685,0,0,1,.612-.339Zm-1.866.52h-.825v1.049c0,.233.082.388.335.388a.93.93,0,0,0,.446-.131l.145.432a1.184,1.184,0,0,1-.63.18c-.6,0-.806-.321-.806-.86V86.173H56.8v-.46h.471v-.7h.509v.7h.825v.46Zm-6.461.5a.6.6,0,0,1,.617-.563.576.576,0,0,1,.587.563Zm1.729.2a1.113,1.113,0,0,0-1.1-1.219,1.219,1.219,0,0,0,.034,2.437,1.41,1.41,0,0,0,.951-.325l-.248-.374a1.1,1.1,0,0,1-.675.242.645.645,0,0,1-.695-.568h1.723c.005-.063.01-.126.01-.194ZM56.1,86.3a1.488,1.488,0,0,0-.723-.2c-.277,0-.442.1-.442.272,0,.155.174.2.393.228l.238.034c.505.073.811.287.811.694,0,.442-.388.758-1.058.758a1.674,1.674,0,0,1-1.005-.3l.238-.394a1.238,1.238,0,0,0,.773.242c.345,0,.529-.1.529-.282,0-.131-.131-.2-.408-.242l-.238-.034c-.52-.073-.8-.306-.8-.685,0-.46.379-.743.966-.743a1.735,1.735,0,0,1,.946.242L56.1,86.3Zm6.228-.171a.764.764,0,0,0-.29.055.7.7,0,0,0-.231.153.711.711,0,0,0-.153.236.853.853,0,0,0,0,.606.711.711,0,0,0,.153.236.7.7,0,0,0,.231.153.8.8,0,0,0,.579,0,.694.694,0,0,0,.232-.153A.707.707,0,0,0,63,87.183a.853.853,0,0,0,0-.606.707.707,0,0,0-.155-.236.694.694,0,0,0-.232-.153A.763.763,0,0,0,62.323,86.133Zm0-.48a1.307,1.307,0,0,1,.5.094,1.214,1.214,0,0,1,.4.258,1.18,1.18,0,0,1,.263.388,1.3,1.3,0,0,1,0,.974,1.183,1.183,0,0,1-.263.388,1.223,1.223,0,0,1-.4.258,1.386,1.386,0,0,1-1,0,1.21,1.21,0,0,1-.4-.258,1.2,1.2,0,0,1-.262-.388,1.294,1.294,0,0,1,0-.974,1.183,1.183,0,0,1,.658-.646,1.307,1.307,0,0,1,.5-.094ZM49.2,86.872a.7.7,0,1,1,.19.525.7.7,0,0,1-.19-.525Zm1.879,0v-1.16h-.5v.282a.88.88,0,0,0-.733-.339,1.22,1.22,0,0,0,0,2.437.88.88,0,0,0,.733-.339v.28h.5Zm-2.845,1.161V86.576a.864.864,0,0,0-.912-.923.9.9,0,0,0-.816.412.853.853,0,0,0-.767-.412.768.768,0,0,0-.678.345v-.286h-.506v2.321h.509V86.746a.543.543,0,0,1,.569-.617c.335,0,.505.218.505.612v1.291h.509V86.746a.548.548,0,0,1,.568-.617c.345,0,.51.218.51.612v1.291Z" transform="translate(-39.922 -66.157)"/></g></g></g></svg>