<svg xmlns="http://www.w3.org/2000/svg" viewBox="0 0 40.789 25.793"><defs><style>.a{fill:#fff;}.b{fill:#ff5f00;}.c{fill:#eb001b;}.d{fill:#f79e1b;}</style></defs><g transform="translate(20.394 12.897)"><g transform="translate(-20.394 -12.896)"><rect width="40.789" height="25.793"/><g transform="translate(6.28 1.804)"><path class="a" d="M35.585,87.388v-1.46a.845.845,0,0,0-.893-.917.9.9,0,0,0-.815.412.852.852,0,0,0-.767-.412.794.794,0,0,0-.7.339v-.281h-.466v2.319h.471v-1.33A.557.557,0,0,1,33,85.442c.335,0,.524.218.524.611v1.334H34v-1.33a.561.561,0,0,1,.587-.616c.345,0,.529.218.529.611v1.334Zm7.561-2.319H42.3v-.7H41.83v.7h-.49v.422h.49v1.1c0,.539.189.859.786.859a1.185,1.185,0,0,0,.63-.18l-.145-.412a.931.931,0,0,1-.446.131c-.252,0-.354-.155-.354-.388V85.491h.844Zm4.3-.058a.717.717,0,0,0-.63.339v-.281h-.46v2.319h.464V86.083c0-.383.184-.63.514-.63a.821.821,0,0,1,.315.058l.155-.438a1.078,1.078,0,0,0-.359-.063Zm-6.507.242A1.734,1.734,0,0,0,40,85.011c-.587,0-.945.276-.945.738,0,.379.262.606.781.679l.238.034c.276.039.427.136.427.267,0,.18-.2.3-.548.3a1.2,1.2,0,0,1-.772-.242l-.238.364a1.731,1.731,0,0,0,1,.3c.67,0,1.038-.31,1.038-.751,0-.408-.281-.616-.791-.689l-.238-.034c-.218-.029-.412-.1-.412-.252s.184-.286.46-.286a1.5,1.5,0,0,1,.723.2Zm7.036.975A1.156,1.156,0,0,0,49.2,87.446a1.215,1.215,0,0,0,.835-.276l-.242-.363a1.02,1.02,0,0,1-.606.209.789.789,0,0,1,0-1.572,1.02,1.02,0,0,1,.606.209l.242-.363a1.215,1.215,0,0,0-.835-.276,1.156,1.156,0,0,0-1.218,1.218ZM44.717,85.01a1.122,1.122,0,0,0-1.145,1.213,1.14,1.14,0,0,0,1.179,1.223,1.41,1.41,0,0,0,.951-.325l-.247-.344a1.1,1.1,0,0,1-.674.242.682.682,0,0,1-.713-.6H45.8c0-.063.01-.126.01-.194a1.1,1.1,0,0,0-1.092-1.213Zm-.01.432a.591.591,0,0,1,.611.587H44.067A.62.62,0,0,1,44.707,85.442Zm-6.278.786v-1.16h-.466v.281a.919.919,0,0,0-.751-.339,1.22,1.22,0,0,0,0,2.436.919.919,0,0,0,.751-.339v.281h.466Zm-1.878,0a.727.727,0,0,1,.723-.786.79.79,0,0,1,0,1.572.727.727,0,0,1-.723-.786Zm17.9-1.218a.717.717,0,0,0-.63.339v-.281h-.46v2.319h.466V86.083c0-.383.184-.63.514-.63a.821.821,0,0,1,.315.058l.155-.436a1.078,1.078,0,0,0-.359-.063ZM52.67,86.228v-1.16H52.2v.281a.919.919,0,0,0-.751-.339,1.22,1.22,0,0,0,0,2.436.919.919,0,0,0,.751-.339v.281h.466Zm-1.878,0a.727.727,0,0,1,.723-.786.79.79,0,0,1,0,1.572.727.727,0,0,1-.723-.786Zm6.56,0V84.137h-.466V85.35a.919.919,0,0,0-.751-.339,1.22,1.22,0,0,0,0,2.436.919.919,0,0,0,.751-.339v.281h.466Zm-1.878,0a.727.727,0,0,1,.723-.786.79.79,0,0,1,0,1.572.727.727,0,0,1-.724-.786Z" transform="translate(-30.484 -65.553)"/><rect class="b" width="8.398" height="13.717" transform="translate(9.916 1.865)"/><path class="c" d="M36.7,16.173a8.708,8.708,0,0,1,3.332-6.858,8.724,8.724,0,1,0,0,13.717A8.709,8.709,0,0,1,36.7,16.173Z" transform="translate(-25.915 -7.449)"/><path class="d" d="M98.276,16.17a8.724,8.724,0,0,1-14.114,6.858,8.724,8.724,0,0,0,0-13.717,8.724,8.724,0,0,1,14.114,6.858Z" transform="translate(-70.047 -7.446)"/></g></g></g></svg>