<svg xmlns="http://www.w3.org/2000/svg" viewBox="0 0 40.789 25.902"><defs><style>.a{fill:#fff;}.b{fill:#f7b600;}.c{fill:#1a1f71;}</style></defs><g transform="translate(20.394 12.951)"><g transform="translate(-20.394 -12.951)"><rect class="a" width="40.789" height="25.903"/><rect class="b" width="39.431" height="3.536" transform="translate(0.666 21.701)"/><rect class="c" width="39.431" height="3.536" transform="translate(0.666 0.692)"/><path class="c" d="M29.911,31.179l-4.074,9.71H23.173l-2-7.763a1.072,1.072,0,0,0-.589-.846,10.1,10.1,0,0,0-2.485-.82l.051-.282H22.43a1.171,1.171,0,0,1,1.153,1l1.05,5.611,2.613-6.61Zm10.428,6.533c0-2.562-3.536-2.716-3.51-3.843,0-.359.333-.717,1.076-.82a4.789,4.789,0,0,1,2.485.436l.436-2.05A6.554,6.554,0,0,0,38.469,31c-2.485,0-4.227,1.332-4.253,3.2-.026,1.409,1.255,2.178,2.2,2.639s1.307.794,1.307,1.2c0,.641-.794.948-1.512.948a5.155,5.155,0,0,1-2.588-.615l-.461,2.127a7.138,7.138,0,0,0,2.793.512c2.639.026,4.356-1.281,4.381-3.305M46.9,40.89H49.23l-2.024-9.71H45.053a1.145,1.145,0,0,0-1.076.717L40.185,40.89h2.639l.512-1.46h3.228ZM44.08,37.457l1.332-3.638.769,3.638ZM33.5,31.179l-2.075,9.71H28.912l2.075-9.71Z" transform="translate(-13.463 -23.057)"/></g></g></svg>