<?xml version="1.0" encoding="UTF-8"?>
<svg width="135px" height="141px" viewBox="0 0 135 141" version="1.1" xmlns="http://www.w3.org/2000/svg" xmlns:xlink="http://www.w3.org/1999/xlink">
    <!-- Generator: Sketch 60 (88103) - https://sketch.com -->
    <title>Cat</title>
    <desc>Created with Sketch.</desc>
    <g id="Symbols" stroke="none" stroke-width="1" fill="none" fill-rule="evenodd">
        <g id="DS/Illustrations/Cat/Outline-Converted" transform="translate(0.000000, 2.000000)" fill-rule="nonzero">
            <g id="Cat" transform="translate(0.000000, -2.000000)">
                <g id="Friendly-cat-(8ceeb34c-a656-4fb9-9d04-87e5196ea707)" transform="translate(0.000000, 40.412115)" fill="#000000">
                    <path d="M6.68868226,4.36078434 C8.95338105,3.80668601 11.290251,3.60677678 13.6161569,3.76816851 C13.944993,3.79098604 14.1930701,4.07605764 14.1702525,4.40489374 C14.147435,4.73372984 13.8623634,4.98180691 13.5335273,4.95898938 C11.3306129,4.80613188 9.11731423,4.99547012 6.98950845,5.51580467 C4.87924014,6.09899184 2.82678443,6.87412139 0.857829979,7.83149175 C0.561388431,7.97563137 0.204226823,7.85216626 0.0600872,7.55572472 C-0.0840524226,7.25928317 0.0394126828,6.90212156 0.335854231,6.75798194 C2.37031918,5.76875822 4.49106362,4.96783878 6.68868226,4.36078434 Z" id="Path"></path>
                    <path d="M12.8843602,5.78349671 C13.2099048,5.73178086 13.5157348,5.95376294 13.5674507,6.27930755 C13.6191665,6.60485216 13.3971844,6.91068219 13.0716398,6.96239803 C9.59490933,7.51470959 6.70996575,9.10193776 3.32764645,12.6097495 C3.09884825,12.8470367 2.72101139,12.8539183 2.48372421,12.6251201 C2.24643703,12.3963219 2.23955535,12.0184851 2.46835355,11.7811979 C6.02462583,8.09297912 9.14166024,6.37806004 12.8843602,5.78349671 Z" id="Path"></path>
                    <path d="M2.08029919,0.505465963 C7.16317656,0.148556898 10.6960169,0.170048206 13.0756694,0.509998565 C13.4019833,0.556614833 13.628723,0.858934449 13.5821067,1.18524833 C13.5354904,1.5115622 13.2331708,1.73830191 12.9068569,1.69168565 L12.4179167,1.6286203 C10.1412115,1.3646053 6.82459712,1.3689546 2.16391134,1.69621825 C1.83509417,1.7193071 1.54981798,1.47146534 1.52672912,1.14264818 C1.50364026,0.813831014 1.75148203,0.528554819 2.08029919,0.505465963 Z" id="Path"></path>
                </g>
                <g transform="translate(8.000762, 0.000000)" id="Path">
                    <path d="M123.206904,12.5461931 L123.050412,12.3008296 C118.206542,4.84928287 113.003513,0.423674542 108.596828,0.684645731 C103.688646,0.987999669 100.348494,3.73082493 100.966692,7.52707956 C101.148289,8.64223913 101.885825,9.6012875 103.223621,10.7893477 L103.545673,11.0653475 C104.472127,11.8434405 106.49078,13.4564718 106.813079,13.7263776 C109.273555,15.7868788 110.735783,17.5130875 111.386423,19.4177889 L111.470133,19.6786754 C111.507662,19.8052285 111.720818,20.4179543 111.780046,20.6005295 C111.935077,21.0784222 112.073705,21.5775991 112.206526,22.1676121 L112.258694,22.4050806 C113.679348,29.0331926 113.248597,40.6526857 109.648593,59.7124602 L109.334,61.352 L109.060992,61.2284873 C102.894704,58.4745521 96.7740643,58.2656279 83.3243614,59.358666 L79.0430248,59.7124389 C75.4451024,59.997325 72.8628896,60.1403936 70.3784492,60.1640517 L69.6351323,60.1675892 C51.736789,60.1972892 43.7980102,57.3457726 43.0958412,52.362836 C42.7551306,49.9338971 43.3755799,44.9144618 44.2292792,42.1724956 C45.9900449,36.8442519 48.1017911,31.6178787 50.5454405,26.5437212 L51.2128048,25.1822639 C51.8546613,23.9276309 51.9680858,23.0240467 51.1111117,21.8874284 C51.0053164,21.7471104 50.8726911,21.6292156 50.7209414,21.5405938 C49.6587281,20.9202612 48.867991,21.0269246 47.796424,21.5809373 L47.2459718,21.8754513 C45.13824,23.0251959 39.4140807,27.128266 36.6228507,29.4095114 L36.181,29.775 L35.7550404,29.4617286 C34.2338345,28.3702007 32.5837177,27.4666122 30.8404368,26.7722582 C26.1985148,24.9984289 21.2531214,24.6731867 15.7895352,25.5750884 L15.6172457,25.6154946 C15.4767746,25.6585052 15.3258952,25.592883 15.2615765,25.4608029 L15.1793332,25.315834 L12.6870326,21.5429435 L8.43467534,15.1854857 C7.79390885,14.2018362 7.21137383,13.7331603 6.03758598,13.8161554 C4.80178372,13.9035353 4.12562588,14.6654498 3.76991105,15.8146823 L2.89581873,18.5889542 C2.70768347,19.2046444 2.56645352,19.6985512 2.4277345,20.2271185 C0.750559633,26.1595717 0.267971834,32.3914506 1.01460563,38.5362015 C1.52361264,43.2169984 3.35778003,47.6678884 6.29688724,51.3580163 L6.73194494,51.8888771 L6.99710967,52.1939285 C7.9987234,53.3207628 9.28015878,54.5047366 9.424,54.614 L9.40865859,54.5642841 C12.2321605,63.5117141 13.7080388,73.5957595 14.2532048,85.7503734 L14.3540671,88.2982337 C14.5260322,93.2243608 14.5518695,97.8022324 14.4811136,105.221224 L14.3538457,116.63099 L14.3371385,119.683037 L14.3318866,120.198121 C14.3230561,120.933584 14.308442,121.663968 14.2870359,122.36512 L14.2633285,123.055634 C14.1992529,124.725993 14.0970503,126.003753 13.963554,126.654547 C13.6487398,128.18049 13.1165879,129.039604 12.05929,130.05928 L11.44771,130.634884 C9.80245365,132.185798 9.10871128,133.468241 9.10871128,135.820642 C9.10871128,138.548571 10.8894264,139.920501 13.5662764,140.246873 C14.1418345,140.317047 14.6605123,140.338299 15.3359202,140.330447 L19.685,140.237 L19.581403,140.230768 C20.8913687,140.360992 22.1674453,139.763336 22.9060605,138.67365 C23.6126923,137.630952 24.1069521,136.459373 24.3606769,135.225729 L24.3905027,135.10199 C24.4218154,134.954887 24.4578711,134.736356 24.5012069,134.434369 L25.0609909,130.04024 L25.1579521,129.353893 C25.2113378,128.993458 25.2606702,128.69227 25.3058805,128.452592 L25.6430166,126.840549 C25.7890659,126.123708 25.9602018,125.258323 26.1530817,124.263646 L26.7850829,120.955641 L27.6619493,116.251678 C28.0175619,114.509953 28.3246917,112.76129 28.6436338,110.723669 L29.5185077,104.953366 L29.5745833,104.614596 C29.7392925,103.634918 29.8916795,102.867539 30.0446374,102.264606 L30.139,101.913 L30.1948743,102.156799 C30.3686167,102.953059 30.522106,103.946726 30.6438317,105.045357 L30.8396261,106.87453 C30.9057407,107.445702 30.9874614,108.101686 31.1077176,109.024531 L32.267444,117.727894 C32.9613156,123.075409 33.2392394,125.961226 33.0956593,126.661179 C32.800521,128.09175 32.3143632,128.936242 31.3835597,129.876402 L30.9621454,130.283092 C30.7704879,130.46349 30.5484695,130.671064 30.5798152,130.641515 C28.9345589,132.192429 28.2408165,133.474873 28.2408165,135.827273 C28.2408165,138.555403 30.0203345,139.927587 32.6955412,140.25368 C33.2702191,140.32373 33.7880241,140.344933 34.4624861,140.337074 L35.668185,140.310221 L37.541,140.244 L37.4537167,140.242634 C38.8108797,140.302088 40.137744,139.830031 41.152398,138.926757 C41.259552,138.831366 41.3505198,138.719221 41.4217558,138.594694 C42.0662197,137.468112 42.6077636,136.285702 43.0398068,135.061831 L43.0759917,134.941428 C44.5816691,128.907225 45.0946781,125.070926 45.2834255,119.908631 L45.3964421,116.196082 C45.5276669,112.390957 45.7276768,109.906084 46.2488483,106.400717 L46.6402466,103.847847 C46.7032681,103.458669 46.7679186,103.081964 46.8171646,102.847163 C47.0076971,101.938716 47.2418299,101.291895 47.4189916,101.094193 C47.7774203,100.694517 48.3250477,100.403104 49.0355976,100.221577 C49.6973712,100.052511 50.3827367,99.9964335 51.1166472,100.00902 L51.8691323,100.036642 C53.6137572,100.104611 55.5250946,100.160142 57.5371666,100.203154 C62.9920313,100.319763 68.7579211,100.339644 74.2229786,100.297865 L77.5640815,100.264177 L79.0821708,100.242011 L79.273334,100.224723 C79.9252765,100.117764 80.8558847,100.092139 81.9759009,100.140756 C82.7826396,100.175774 83.6503212,100.247163 84.5350689,100.344192 L85.1991476,100.421506 L86.0623664,100.535922 L86.144,100.548 L86.4957911,100.708828 L86.6294812,100.772475 C87.1308763,101.012935 87.7455377,101.328336 88.4795065,101.727854 L88.8013867,101.904252 C91.1160235,103.181036 94.0459642,104.96745 97.6466174,107.346723 L98.9974055,108.243933 C100.508204,109.232157 103.849561,111.271766 104.423764,111.695493 C106.046548,112.893006 106.519974,113.958255 106.519974,116.887484 C106.519974,121.796231 104.748716,127.901641 103.392507,128.926806 L102.372299,129.666468 C100.335453,131.136567 99.4108996,132.30808 99.1985919,134.442634 C99.1236561,135.683425 99.299776,136.873568 99.7116884,137.990505 C100.255227,139.574457 101.744741,140.678953 103.448153,140.740411 L107.762236,140.906086 C110.821081,140.879007 113.559402,139.208631 114.95512,136.557954 C115.598295,135.228097 116.125326,133.895429 116.552717,132.529561 L117.95305,127.861643 C118.551155,125.822124 118.714439,125.11906 118.969452,123.845712 L119.077388,123.281226 C119.403963,121.487341 119.589582,119.600711 119.738479,116.695773 L119.761699,116.228502 C119.814895,115.138004 119.809295,114.398427 119.757564,113.472298 L119.700491,112.54357 L119.687375,112.238146 C119.649701,111.016716 119.79558,109.761478 120.343798,107.141585 L120.489361,106.457412 C123.546474,92.2583197 123.570609,82.227013 121.739707,75.6809317 L121.650694,75.370553 C121.204758,73.854168 120.748441,72.8689758 120.402589,72.3501973 L120.167,72.021 L120.664157,69.6646029 C127.162394,38.5057459 128.222764,20.6096249 123.206904,12.5461931 Z M32.2229727,132.740737 L33.032811,131.975268 C34.3690174,130.686608 35.1677329,129.445401 35.6180014,127.539129 L35.693882,127.19568 C35.930236,126.043457 35.6665803,123.229383 34.846013,116.981077 L33.6747751,108.19209 C33.5627825,107.320717 33.4892627,106.711004 33.4268604,106.145955 L33.2552571,104.513202 C32.7911882,100.298494 32.1542066,98.1930628 30.3363955,98.1930628 C28.3284637,98.1930628 27.6858976,99.8146331 26.9529819,104.207904 L26.1283864,109.631948 L25.9193204,110.967397 C25.6425427,112.693229 25.3700194,114.21728 25.0579073,115.74696 L24.3455941,119.576025 L23.550182,123.752337 C23.3593025,124.736735 23.1900911,125.592516 23.046387,126.298191 L22.7677161,127.623588 C22.6852048,127.997945 22.5998613,128.504383 22.5055462,129.15965 L22.3664102,130.180986 L21.921335,133.725062 C21.8627149,134.157328 21.8170587,134.449985 21.7901502,134.574552 L21.7809495,134.61333 C21.5788917,135.583732 21.2213566,136.431222 20.7102441,137.185414 C20.5418602,137.433833 20.2661792,137.584144 19.971169,137.595103 L19.6848649,137.584932 L15.339876,137.677426 C14.758118,137.684751 14.3320521,137.667964 13.8873184,137.61374 C12.3879747,137.430934 11.7613429,136.948154 11.7613429,135.820642 C11.7613429,134.378654 12.0723148,133.727902 13.0908674,132.734106 L13.9007058,131.968637 C15.3155125,130.604173 16.1277343,129.292909 16.5617767,127.189048 C16.7343396,126.347808 16.8444113,124.971665 16.9140106,123.157316 C16.940799,122.458981 16.960189,121.725264 16.9732863,120.97924 L16.9914774,119.462537 L17.0309756,114.151293 L17.1281037,105.812289 C17.2099056,97.6280759 17.1805735,92.8389786 16.9772177,87.4376296 L16.9469762,86.6614106 C16.43081,73.8347896 14.9211401,63.2182889 11.9385969,53.7668723 C11.8514032,53.489903 11.7172397,53.240965 11.5385979,53.0066732 L11.4294691,52.8928904 C11.0018208,52.4696656 9.47639411,51.0475374 8.6588469,50.0583344 C5.8639674,46.6916839 4.12258415,42.5798427 3.64977721,38.2328092 C2.97189712,32.6530626 3.36426837,27.0128505 4.80178079,21.599978 L5.14030325,20.3591256 C5.28145613,19.8551634 5.44094345,19.3282425 5.6629418,18.6233126 L6.267,16.716 L11.7380277,24.9093299 L12.929,26.723 L12.9605821,26.7819775 C13.6074809,27.9283933 14.9400752,28.5079806 16.2197564,28.1994952 L16.276,28.183 L16.2215716,28.1923004 C21.2482523,27.362521 25.7242489,27.6568925 29.8762526,29.2433825 C31.8646554,30.0355104 33.7310804,31.1473784 35.3886469,32.5308007 C35.9260681,32.979338 36.7195451,32.9330003 37.2011035,32.4249562 C38.434392,31.1238367 46.1556921,25.4962992 48.4849028,24.2210119 L48.815,24.044 L48.7348649,24.2049166 C45.9957168,29.7504429 43.6455484,35.4848538 41.7035728,41.3621035 C40.7350996,44.4720408 40.0677231,49.8711166 40.4690439,52.7321455 C41.4167372,59.4574446 50.1450103,62.7202363 68.5014253,62.8181746 L69.6373333,62.8202189 C72.5667935,62.8202207 75.4788154,62.6621226 79.7996038,62.3130171 L82.9084398,62.0543575 C96.7227808,60.910222 102.609997,61.1174205 108.49735,63.8884601 L108.645,63.959 L109.460746,64.5748419 C110.241083,65.1643053 111.369265,64.7353258 111.560811,63.7763141 L111.987295,61.6062577 C115.940298,41.151737 116.404351,28.7367327 114.794396,21.5850429 C114.642963,20.9123538 114.482602,20.3349223 114.303231,19.7819978 L114.011956,18.9200104 C113.254333,16.397413 111.598422,14.3307225 108.877176,11.9984567 L108.516176,11.6926828 C108.100096,11.3442415 105.559674,9.31626902 104.985029,8.80594257 C104.077037,7.9995794 103.638306,7.4290796 103.584836,7.10073034 C103.268563,5.15854548 105.226641,3.5506347 108.757057,3.33243151 C111.833553,3.15024062 116.291005,6.88886283 120.581244,13.372794 L120.828561,13.7499044 C125.612894,21.061588 124.392335,39.5572786 117.45157,72.0394926 C117.37362,72.404292 117.452898,72.7850526 117.669967,73.0884265 L118.220388,73.8576897 L118.347458,74.1029843 C118.379112,74.1676179 118.415653,74.2444082 118.455927,74.3326798 C118.699883,74.8673763 118.949006,75.5512683 119.185115,76.3954366 C120.833189,82.2878471 120.867495,91.4494707 118.188398,104.509189 L117.670382,106.971329 C117.120222,109.663357 116.980108,111.057172 117.042897,112.506352 L117.088858,113.28536 C117.153872,114.296821 117.166651,114.983397 117.112181,116.10002 L117.043355,117.402701 C116.908184,119.72601 116.739657,121.309363 116.468532,122.801075 L116.303042,123.647993 C115.975392,125.245186 115.718337,126.123721 114.017364,131.749639 C113.632484,132.979443 113.153235,134.191289 112.587238,135.363187 C111.6669,137.109332 109.82054,138.235611 107.800737,138.254489 L103.546871,138.089619 C102.93759,138.067633 102.407505,137.674567 102.210502,137.100848 C101.915301,136.299409 101.793372,135.475464 101.842366,134.65275 C101.951754,133.562934 102.394279,132.952142 103.699169,131.98246 L104.78573,131.196871 C104.857049,131.144282 104.925467,131.093246 104.992073,131.042898 C107.191353,129.38045 109.172606,122.551202 109.172606,116.887484 C109.172606,113.159337 108.341874,111.290123 105.998818,109.561093 L105.796009,109.418757 C104.809076,108.747707 101.815317,106.915018 100.471221,106.038101 L99.1079877,105.132968 C95.7975537,102.945561 93.0358681,101.245713 90.7786894,99.9702887 L90.0826148,99.5815578 C88.4937422,98.7051152 87.4893283,98.2234154 86.9936411,98.0273809 C86.9326702,98.0032681 86.8700375,97.9837263 86.806263,97.9688968 L86.6388712,97.9393709 L86.1739226,97.8731986 C85.7595084,97.8166119 85.3051521,97.7601102 84.8242453,97.7073698 C83.8856157,97.6044317 82.9617289,97.528418 82.0909351,97.4906196 L81.6692895,97.4752252 C80.7023128,97.4469012 79.8541543,97.4723341 79.1411359,97.5638056 L78.955,97.59 L76.229152,97.6268909 C70.2021655,97.690346 63.6980367,97.6816173 57.5938588,97.5511287 L55.6304875,97.5042614 C54.6662504,97.4787308 53.7286171,97.4500312 52.8195275,97.4180568 L51.6086258,97.3709538 C50.4934884,97.3200918 49.4569664,97.3761001 48.3790076,97.6514904 C47.1983816,97.9531096 46.193088,98.488064 45.4438239,99.323553 C44.9028308,99.9272697 44.5591914,100.80809 44.2875121,101.998571 L44.2210188,102.302661 C44.0585532,103.077286 43.7897079,104.922959 43.8043622,104.849688 C43.1343527,109.097393 42.8967779,111.777582 42.7485815,116.013286 L42.6524677,119.223981 L42.6327871,119.805764 C42.4577261,124.603036 41.9984064,128.169044 40.6663469,133.634101 L40.519,134.228 L40.3410058,134.712468 C40.0671359,135.419801 39.7510072,136.110038 39.3943298,136.779446 L39.231,137.074 L39.0719213,137.18614 C38.6835527,137.436309 38.2335416,137.577743 37.7694372,137.593523 L37.4640855,137.592131 L35.6205066,137.658446 L35.2909984,137.663955 L35.0064076,137.672184 C34.1270235,137.697899 33.5871753,137.6901 33.0165066,137.620539 C31.5190103,137.438002 30.8934481,136.955632 30.8934481,135.827273 C30.8934481,134.385286 31.20442,133.734533 32.2229727,132.740737 Z" fill="#000000"></path>
                    <path d="M94.4055523,130.045591 C93.1498235,130.990695 92.7243556,131.586088 92.6178394,132.650013 C92.5688453,133.472727 92.6907745,134.296672 92.9859757,135.098111 C93.1678246,135.627698 93.6334827,136.003355 94.1842052,136.075344 L94.3235429,136.086928 L98.5414462,136.252727 C98.9305028,136.268084 99.4886397,136.185468 100.054161,136.01826 C100.756604,135.810568 101.494414,136.211643 101.702106,136.914086 C101.909798,137.616529 101.508723,138.35434 100.80628,138.562031 C100.082808,138.775941 99.3484607,138.897992 98.7063031,138.906615 L98.4370375,138.903303 L94.2236267,138.737674 C92.5202145,138.676216 91.0307005,137.57172 90.4871621,135.987768 C90.0752497,134.870832 89.8991298,133.680688 89.974031,132.440246 C90.1733422,130.430973 91.0088048,129.284603 92.8159816,127.922206 L93.9022785,127.126582 L94.1534848,126.935185 C95.602609,125.808089 96.9546715,121.407907 96.8580509,116.65644 C96.8190006,114.779423 96.571318,114.16083 95.6477039,113.482757 L95.517523,113.3898 C95.4041596,113.310908 91.5249487,111.098792 89.3292663,109.623735 L88.9888274,109.391451 C86.5879025,107.798203 84.3321512,105.996339 82.2230832,103.982595 C82.0982772,103.857088 81.9764036,103.728908 81.8567812,103.597618 C81.5518187,103.262911 81.2726745,102.921954 80.9787879,102.531957 L80.633905,102.061033 C80.4217679,101.764085 80.0427761,101.229815 79.9287764,101.075817 L79.7297122,100.81426 C79.6668909,100.734384 79.6070903,100.661212 79.5487715,100.592924 C79.0730695,100.035905 79.1389896,99.1987198 79.6960082,98.7230178 C80.2530268,98.2473158 81.0902122,98.3132359 81.5659142,98.8702545 C81.6731623,98.9958356 81.779678,99.1278322 81.8905615,99.271837 L82.1846135,99.6679011 C82.4146029,99.9872608 82.8090828,100.54419 82.8993196,100.66811 C83.2264949,101.11741 83.5098951,101.473384 83.8175762,101.811075 L84.0001153,102.0064 C84.0284533,102.035963 84.0551535,102.063444 84.0793232,102.087963 C85.8318228,103.760737 87.7124079,105.293245 89.719763,106.682505 L90.8218882,107.430619 C92.9314028,108.843184 96.7966521,111.048215 97.0327497,111.212522 C98.8161977,112.453671 99.4527289,113.843215 99.5101214,116.601887 C99.6220629,122.106778 98.0329829,127.278315 95.782043,129.029046 L95.3740424,129.337388 C95.0903273,129.546087 94.5590864,129.931133 94.6226157,129.884695 L94.4055523,130.045591 Z" fill="#000000"></path>
                    <path d="M23.0861427,82.4077283 C23.7978736,82.2345201 24.5152586,82.671079 24.6884669,83.38281 C25.2371015,85.6372078 26.0194504,87.8282123 27.0256577,89.9262208 L27.8895899,91.7353855 C28.6516228,93.311577 29.1630594,94.2983646 29.9198105,95.6813903 L30.6603815,97.0236643 C31.297663,98.1765373 31.7743511,99.1028672 32.4512502,100.538781 C32.7635921,101.201355 32.4796726,101.991681 31.8170983,102.304023 C31.154524,102.616365 30.3641983,102.332445 30.0518565,101.669871 C29.4654382,100.425895 29.0416816,99.5919838 28.5176009,98.6322646 L27.4359565,96.6673164 C26.4961975,94.9400861 25.8972317,93.741616 24.6310356,91.0673586 C23.5478882,88.808966 22.7033246,86.4437265 22.111061,84.0100525 C21.9378527,83.2983215 22.3744117,82.5809366 23.0861427,82.4077283 Z" fill="#000000"></path>
                    <path d="M8.61605617,52.1769222 C9.0590081,51.5935221 9.89103081,51.4796663 10.4744309,51.9226183 L10.6412127,52.0595018 C10.8208929,52.2111425 11.0705104,52.4278866 11.1515559,52.4935538 C11.4446896,52.7310661 11.7478991,52.9384636 12.1133683,53.137973 C13.5755327,53.9361679 15.6886093,54.4180102 18.7709218,54.4180102 C19.5034258,54.4180102 20.0972376,55.011822 20.0972376,55.744326 C20.0972376,56.47683 19.5034258,57.0706418 18.7709218,57.0706418 C15.2652483,57.0706418 12.7167711,56.4895155 10.8423516,55.4662709 C10.3279178,55.1854417 9.89353785,54.8883227 9.48161796,54.5545637 L8.87036008,54.0352969 C8.28695998,53.592345 8.17310424,52.7603223 8.61605617,52.1769222 Z" fill="#000000"></path>
                    <path d="M13.0545008,46.168326 C14.0558692,45.3128523 14.1487113,44.9414839 13.6579744,43.648326 C13.5120797,43.2636944 13.0942902,42.2822207 13.8569218,42.1893786 C14.7917555,42.0783199 15.7391767,42.1458321 16.6488165,42.388326 C17.020185,42.4811681 17.4976587,43.0514839 17.1262902,43.5355892 L16.2575534,44.6231681 C16.5228165,45.1735892 16.7482902,45.7637997 17.066606,46.3009576" fill="#000000"></path>
                    <path d="M15.3423955,45.3393786 C15.3423955,45.3393786 16.5891323,47.8660102 18.6913429,48.1047471 C19.6941571,48.2776267 20.7191602,48.2776267 21.7219744,48.1047471" fill="#FFFFFF"></path>
                    <path d="M14.7555008,44.1499804 C15.3713319,43.8461057 16.1087922,44.0641985 16.4656464,44.633905 L16.6150078,44.9031664 C16.6424305,44.9499852 16.6757022,45.0049644 16.7146129,45.0666463 C16.8818686,45.3317827 17.0786688,45.5974629 17.2990256,45.8407873 C17.8016806,46.3958334 18.3305077,46.7289278 18.9166686,46.7977115 C19.7703655,46.9448842 20.6429518,46.9448842 21.4966487,46.7977115 C22.2185045,46.6732675 22.904566,47.1575655 23.02901,47.8794213 C23.153454,48.6012771 22.669156,49.2873386 21.9473002,49.4117826 C20.7953687,49.6103693 19.6179486,49.6103693 18.5416822,49.422592 C17.2915713,49.2806236 16.2297917,48.6118362 15.3328336,47.6213892 C14.7653777,46.9947881 14.3744829,46.3751352 14.1529972,45.9262733 C13.8288643,45.2693868 14.0986143,44.4741134 14.7555008,44.1499804 Z" fill="#000000"></path>
                    <path d="M14.8914481,45.4388523 C14.8914481,45.4388523 13.7640797,47.1696944 12.2388165,47.1630628 C11.4944179,47.1962194 10.749823,47.1020237 10.0371323,46.8845365" fill="#FFFFFF"></path>
                    <path d="M13.7800886,44.7149783 C14.1798732,44.1011914 15.0015352,43.9277082 15.6153221,44.3274928 C16.2291091,44.7272774 16.4025922,45.5489394 16.0028076,46.1627263 C15.8065059,46.4641073 15.4825025,46.8699504 15.0353924,47.2792581 C14.2836231,47.9674666 13.433821,48.4201555 12.5259802,48.4810847 L12.297834,48.4880649 C11.4025948,48.5279402 10.5071194,48.4146571 9.65001322,48.1530996 C8.94940516,47.9392996 8.55476924,47.1980255 8.76856923,46.4974174 C8.98236921,45.7968093 9.72364339,45.4021734 10.4242515,45.6159734 C10.9925266,45.7893902 11.5862411,45.8644987 12.2445831,45.8367596 C12.5229184,45.8379697 12.8760658,45.6597181 13.2442361,45.3226761 C13.4664013,45.1192946 13.6393446,44.9133677 13.7374128,44.77702 L13.7800886,44.7149783 Z" fill="#000000"></path>
                    <path d="M13.2269218,35.5246418 C13.2269218,35.5246418 12.3515534,33.3428523 9.19492181,33.8800102 C8.18974235,34.0812769 7.25334696,34.5380551 6.47597444,35.206326"></path>
                    <path d="M9.09479765,33.2916263 C10.7854785,33.0039264 12.0804839,33.3888358 12.9859988,34.2201129 C13.4123499,34.6115099 13.6633502,35.0095573 13.7808433,35.3023997 C13.9035841,35.6083221 13.7550862,35.9558224 13.4491638,36.0785632 C13.1738337,36.18903 12.8648255,36.0797934 12.7162991,35.833824 L12.6730004,35.7468838 C12.6169956,35.6072963 12.4589741,35.3566988 12.1787525,35.0994509 C11.5444529,34.5171538 10.6211704,34.2427301 9.31210136,34.4652362 C8.40743985,34.6463762 7.564684,35.0574766 6.86504873,35.6589204 C6.61508774,35.8738002 6.23825983,35.8453613 6.02338004,35.5954003 C5.80850024,35.3454393 5.83693916,34.9686114 6.08690015,34.7537316 C6.94200992,34.0186336 7.97204485,33.5161776 9.09479765,33.2916263 Z" fill="#000000"></path>
                    <path d="M11.9205008,35.4450628 C12.0650728,36.3020307 11.6691186,37.1599262 10.9231895,37.6058911 C10.1772605,38.051856 9.23413784,37.9945475 8.54769533,37.4615451 C7.86125282,36.9285427 7.5720878,36.0290161 7.81935967,35.1958585 C8.06663153,34.362701 8.79969397,33.7665601 9.66576391,33.694326 C10.7711978,33.5575065 11.7792025,34.3401925 11.9205008,35.4450628" fill="#000000"></path>
                    <path d="M31.7953429,38.0976944 C31.7953429,38.0976944 31.6030271,36.1082207 28.4795534,35.7899049 C27.0688951,35.7038958 25.6624901,36.0164303 24.4210271,36.6917997"></path>
                    <path d="M24.1358115,36.1675168 C25.4756298,35.438641 26.9934578,35.1013459 28.5400646,35.1961383 C29.9410387,35.3389127 30.9550669,35.8072633 31.6198197,36.5133042 C32.1361661,37.061721 32.3492826,37.6250965 32.3894158,38.0402674 C32.4211319,38.3683648 32.1808673,38.6600513 31.8527699,38.6917673 C31.5574822,38.7203118 31.2916874,38.528552 31.2183603,38.2507316 L31.2012699,38.1551215 C31.1845991,37.9826643 31.0642792,37.6645976 30.7507287,37.3315723 C30.2908052,36.8430828 29.5444505,36.4983629 28.4432308,36.3856408 C27.1443325,36.3064457 25.8493504,36.5942195 24.7062427,37.2160826 C24.4166892,37.3736028 24.0542644,37.2665687 23.8967442,36.9770153 C23.7392239,36.6874619 23.846258,36.325037 24.1358115,36.1675168 Z" fill="#000000"></path>
                    <path d="M30.3828165,37.7727471 C30.336376,38.6814828 29.7373004,39.4687017 28.8738128,39.7556627 C28.0103252,40.0426236 27.0592244,39.7705714 26.4780972,39.0703938 C25.89697,38.3702163 25.8048021,37.3852746 26.2459365,36.5894367 C26.687071,35.7935989 27.5711857,35.3498127 28.4729218,35.4715892 C29.635527,35.5800976 30.4903596,36.6100521 30.3828165,37.7727471" fill="#000000"></path>
                    <path d="M28.2408165,45.6709576 L28.4375673,45.675482 C29.0293047,45.6995141 30.1534304,45.8184995 31.7100777,46.013632 L33.2899208,46.2178948 L33.6293983,46.263127 C34.2700267,46.3488671 34.9256135,46.4386739 35.5793226,46.5298354 L37.8368182,46.8510218 C38.1629795,46.8986936 38.3887399,47.2017453 38.3410681,47.5279066 C38.2981635,47.8214518 38.0484012,48.0336722 37.7611062,48.0384281 L37.5741478,48.0190494 L36.3887762,47.8491146 L34.4378407,47.5771413 L31.9166154,47.2429804 C30.0333625,47.0033726 28.720055,46.8646418 28.2408165,46.8646418 C27.9111898,46.8646418 27.6439744,46.5974265 27.6439744,46.2677997 C27.6439744,45.9381729 27.9111898,45.6709576 28.2408165,45.6709576 Z" fill="#000000"></path>
                    <path d="M26.9642253,48.3370196 C27.0663265,48.0584788 27.3542507,47.9018955 27.6364325,47.9560662 L27.7300177,47.9820506 L37.8431756,51.6891032 C38.1526653,51.8025489 38.3115904,52.1454059 38.1981446,52.4548956 C38.0960435,52.7334363 37.8081192,52.8900197 37.5259374,52.835849 L37.4323522,52.8098646 L27.3191943,49.102812 C27.0097046,48.9893662 26.8507796,48.6465093 26.9642253,48.3370196 Z" fill="#000000"></path>
                    <path d="M38.9479115,42.4959603 C39.2766938,42.4723807 39.5623396,42.7197965 39.5859191,43.0485789 C39.6071407,43.344483 39.4088561,43.6054464 39.1293046,43.6718695 L39.0333005,43.6865865 L27.5673005,44.5089022 C27.2385182,44.5324818 26.9528725,44.285066 26.9292929,43.9562837 C26.9080713,43.6603796 27.106356,43.3994161 27.3859074,43.332993 L27.4819115,43.3182761 L38.9479115,42.4959603 Z" fill="#000000"></path>
                    <path d="M5.62050076,15.6829576 L6.89376391,16.0675892 C8.56417198,19.6206416 9.37734522,23.5161503 9.26786918,27.4407471 C9.2280797,28.2431681 8.27313233,27.9314839 7.70281654,27.7988523 C6.97711847,27.6172543 6.20959416,27.7167481 5.55418497,28.0773786 C4.20333482,28.9271191 3.01157673,30.0066589 2.03281654,31.2671681 C2.03281654,31.2671681 2.14555339,23.7867471 3.4652376,19.9404313 C4.78492181,16.0941155 5.62713233,15.6829576 5.62713233,15.6829576" fill="#000000"></path>
                    <path d="M49.1435534,23.6740102 C48.7788165,23.5546418 41.4509218,30.4514839 39.7333429,34.0259049 C39.6151,34.2771175 39.5961502,34.5637327 39.6802902,34.828326 C40.0450271,35.5445365 42.4191323,34.2646418 43.2215534,36.9636944 C43.3011323,37.2355892 50.708606,24.1448523 50.708606,24.1448523 L49.1435534,23.6740102 Z" fill="#000000"></path>
                </g>
            </g>
        </g>
    </g>
</svg>