<?xml version="1.0" encoding="UTF-8"?>
<svg width="142px" height="148px" viewBox="0 0 142 148" version="1.1" xmlns="http://www.w3.org/2000/svg" xmlns:xlink="http://www.w3.org/1999/xlink">
    <!-- Generator: Sketch 60 (88103) - https://sketch.com -->
    <title>Dog - outlined converted</title>
    <desc>Created with Sketch.</desc>
    <g id="Symbols" stroke="none" stroke-width="1" fill="none" fill-rule="evenodd">
        <g id="DS/Illustrations/Dog/Outline-Converted" transform="translate(1.000000, 1.000000)">
            <g id="Dog---outlined-converted" transform="translate(-1.000000, -1.000000)">
                <path d="M103.2679,8.6167 C103.2679,8.6167 110.1223,7.1866 109.8766,5.8951 C109.4923,3.8413 103.0537,1.7371 103.0537,1.7371 L103.2679,8.6167 Z" id="Path" fill="#FFFFFF" fill-rule="nonzero"></path>
                <path d="M103.2679,8.6167 C103.2679,8.6167 110.1223,7.1866 109.8766,5.8951 C109.4923,3.8413 103.0537,1.7371 103.0537,1.7371 L103.2679,8.6167 Z" id="Path" stroke="#000000" stroke-width="2.2932" fill="#000000" stroke-linecap="round" stroke-linejoin="round"></path>
                <path d="M93.6856,12.5101 C92.4823,9.3034 89.7796,3.9736 100.9369,1.6174 C106.5565,0.433 102.9592,9.6373 107.3062,12.5479 C107.3881,12.6046 107.4259,12.7117 107.4952,12.781 C107.5645,12.8503 117.361,14.8726 118.9171,18.9424 C120.5803,23.2705 132.9157,26.8993 138.3526,30.2824 C138.7369,30.5218 139.1275,30.7612 139.4992,31.0132 C139.795638,31.1716426 140.013263,31.4457296 140.10039,31.7703657 C140.187517,32.0950019 140.136371,32.4412222 139.9591,32.7268 C137.9746,45.2701 128.323,41.7043 123.85,40.7719" id="Path" fill-rule="nonzero"></path>
                <path d="M100.700435,0.495448226 C102.57221,0.100948489 103.967391,0.627940859 104.786826,1.99962124 C105.277945,2.82172363 105.491694,3.65716881 105.730315,5.36451134 L105.990746,7.29150497 C106.322131,9.49360192 106.824248,10.7591837 107.814097,11.5024952 L107.958856,11.6051744 C108.012586,11.6423722 108.058189,11.6773723 108.098608,11.7124008 L108.161,11.771 L108.294243,11.8050385 C108.601422,11.8826595 108.889767,11.9576643 109.187466,12.0384175 L109.644553,12.1649042 C111.064682,12.5654564 112.444828,13.0260823 113.748631,13.5665328 C116.871526,14.861031 119.049244,16.3829369 119.898517,18.3147641 L119.987394,18.5311078 C120.662377,20.2875971 123.611818,22.0996487 129.877169,24.9243632 L134.830003,27.1537345 C136.653423,27.9884886 137.407253,28.3735973 138.234013,28.8657579 L139.247523,29.4887176 L139.884289,29.8923102 L140.114,30.045 L140.207785,30.1009502 C140.643265,30.3821739 140.974312,30.7991092 141.149508,31.2869984 L141.207801,31.4731563 C141.34323,31.9777721 141.306716,32.5092282 141.11034,32.9857242 L141.059,33.095 L141.029906,33.2777739 C139.856638,40.0253997 136.379726,43.0028753 131.224175,43.0996965 L130.941302,43.1021261 C129.482774,43.0999911 128.059771,42.8973482 126.219127,42.4919981 L123.61602,41.8943726 C122.996095,41.7651489 122.598304,41.1578443 122.727527,40.5379198 C122.856751,39.9179953 123.464056,39.5202037 124.08398,39.6494274 L126.262985,40.1513488 C128.182207,40.5918355 129.574644,40.8069231 130.944659,40.8089286 C135.223651,40.8151922 137.874546,38.565124 138.826586,32.5476228 C138.850474,32.396641 138.904309,32.2519596 138.984927,32.122087 C138.99503,32.1058105 138.997945,32.0860778 138.992979,32.0675752 L138.980321,32.0424459 L138.958715,32.0244207 L138.855776,31.9622506 L138.499909,31.7279587 L137.234245,30.9408782 C136.393818,30.4336801 135.686496,30.0675715 133.783147,29.19698 L128.513948,26.8248929 C121.809636,23.7844526 118.826881,21.9041147 117.846116,19.3518938 C117.361585,18.0846572 115.566094,16.8023147 112.87051,15.6849448 L112.509539,15.5411673 C110.526008,14.7780506 106.819372,13.7267097 106.684431,13.5917686 C106.635424,13.542761 106.599015,13.5019947 106.565169,13.4587343 L106.521,13.398 L106.469801,13.3620163 C104.917171,12.2304539 104.199898,10.5543414 103.774741,7.96164529 L103.631789,6.98807038 L103.537029,6.26197448 C103.306014,4.48033621 103.137801,3.71074163 102.818164,3.17568942 C102.526896,2.68812613 102.129184,2.53790112 101.173814,2.7392571 C95.830566,3.86764485 93.7730236,5.58653496 93.656592,7.82544 C93.6126384,8.67063962 93.8078614,9.5503616 94.266664,10.8117786 L94.7591083,12.1072707 C94.9815848,12.700153 94.6813115,13.3611319 94.0884293,13.5836083 C93.495547,13.8060848 92.8345681,13.5058115 92.6120917,12.9129293 L92.2320081,11.9202299 C91.5899872,10.2207706 91.2983683,9.01621782 91.3664866,7.70634579 C91.5467034,4.24089109 94.4500551,1.81540411 100.700435,0.495448226 Z" id="Path" fill="#000000" fill-rule="nonzero"></path>
                <path d="M76.2965199,15.6297317 C76.4604183,15.9161588 76.5094743,16.019631 76.5445716,16.1205597 C77.6855917,19.4558491 79.7089309,22.3591772 82.2012139,23.6172111 L82.4606921,23.7414338 C83.3397739,24.1471638 83.3528236,24.6093957 83.1927609,27.4141914 C83.0935358,29.1529235 82.8648768,31.2745423 82.5308833,33.3957524 C81.6410219,39.0473085 80.1984865,43.7884956 78.2270296,46.5172926 C76.5515748,49.2564408 74.3532847,51.8991092 71.3744422,54.8735242 L70.8706969,55.3724051 C68.9297264,57.2793408 59.1469203,66.0536329 56.0929156,69.0272972 L55.9302638,69.1864526 C44.7883055,80.1480924 37.7066114,91.3080093 33.7321548,106.884634 C32.1929951,113.049698 31.724219,120.082958 32.2000259,126.554463 L32.2541922,127.233215 C32.6595691,131.942752 33.6010372,135.738118 34.1722622,136.238821 L34.2124221,136.26895 C34.7508167,136.602322 34.917021,137.309027 34.5836497,137.847422 C34.2502784,138.385817 33.5435725,138.552021 33.0051779,138.21865 C29.7185009,136.183556 28.4298004,118.655793 31.508695,106.323422 C35.5307131,90.5603337 42.6634459,79.1654798 53.7636862,68.1045294 L54.3220084,67.5517414 C57.2239385,64.6967754 67.3365986,55.6297664 69.263565,53.7365893 C72.3775123,50.6772449 74.6144615,48.0285546 76.318827,45.2484362 C78.0716746,42.8172341 79.427761,38.360179 80.2655917,33.0390726 C80.5878831,30.9921834 80.8084148,28.9459744 80.903286,27.2835368 L80.9290085,26.7681437 C80.942844,26.4403123 80.9500625,26.1454842 80.9507162,25.8925105 L80.946,25.548 L80.8998539,25.5246006 C78.0111935,23.9536908 75.8061309,20.8223115 74.5078058,17.2404776 L74.386,16.897 C74.3928636,16.9218643 74.385305,16.9099956 74.3809495,16.9023642 L73.9964319,16.2399079 L71.0377577,11.2506758 C70.440241,10.2355978 69.9519921,9.39557352 69.5637445,8.71209771 L69.2079315,8.07898889 C69.1011019,7.88636316 69.0066274,7.71311526 68.9246571,7.55935428 L68.7774332,7.27784723 C68.6893584,7.10538795 68.6220496,6.96448648 68.5732274,6.84762957 C68.5379976,6.76330622 68.509997,6.68657399 68.4877242,6.60584112 C68.4076871,6.31572887 68.3874477,6.10155752 68.5456347,5.77045089 C70.3423665,1.84745563 78.934006,3.04100202 84.9793196,7.02259588 C86.1602259,7.79973638 87.1450981,8.81235127 88.0415121,10.0688891 C88.4771468,10.679535 89.6484298,12.6692158 90.1547892,13.4630872 L90.293,13.674 L90.4458821,13.6216865 C92.9961082,12.7701234 95.653016,12.2797352 98.3392038,12.1648081 L98.9595778,12.144958 C99.592685,12.1315252 100.116809,12.6338706 100.130505,13.2669778 C100.143675,13.900085 99.6413294,14.4242092 99.0082222,14.437642 C96.151186,14.4982604 93.3227331,15.0203108 90.6323026,15.983594 C90.4816449,16.0375356 90.3213643,16.0593441 90.1617713,16.0476168 C89.9727961,16.0337304 89.786069,15.9979742 89.6090835,15.9422388 C89.4852498,15.9037127 89.3671771,15.8515947 89.2544438,15.7876043 C88.5006398,15.3597253 86.3200171,11.6044186 86.1746767,11.4006893 C85.4309495,10.3581784 84.6388243,9.54374 83.7183219,8.93796809 C79.0582631,5.86873756 72.5717659,4.79768161 70.9130787,6.34614885 L70.889,6.37 L71.1207125,6.79888059 L71.4352362,7.36315019 C71.8342462,8.07032284 72.357453,8.97204042 73.0154491,10.0898498 L76.2965199,15.6297317 Z" id="Path" fill="#000000" fill-rule="nonzero"></path>
                <path d="M54.3813739,145.091011 C48.6156057,145.419613 43.366696,145.212007 38.2582,143.3863" id="Path" stroke="#000000" stroke-width="2.2932" stroke-linecap="round" stroke-linejoin="round"></path>
                <path d="M87.0958,141.0868 C87.0958,141.0868 86.9131,145.144 89.5717,146.0197 C91.6822,146.719 105.5737,148.0231 105.5737,141.931 C105.5737,139.7512 105.4414,135.127 101.3086,134.9128 C98.3476,134.7616 95.7016,135.4042 95.8402,130.1437 C96.0922,120.7882 97.2388,118.0036 97.3837,107.4259 L97.2955,99.2359 C97.2955,99.2359 100.0738,96.6025 102.5623,87.6754" id="Path" fill-rule="nonzero"></path>
                <path d="M101.348575,87.3370644 C101.535432,86.6667425 102.230314,86.2748172 102.900636,86.4616747 C103.570958,86.6485323 103.962883,87.3434136 103.776025,88.0137356 C103.541901,88.8536198 103.299917,89.6580472 103.050708,90.4277832 C102.025136,93.5954774 100.917895,96.0672437 99.7989423,97.9263464 C99.34983,98.6725316 98.9540562,99.2341142 98.6307506,99.632857 L98.56,99.716 L98.6435818,107.443159 C98.5857083,111.667922 98.4191973,114.316983 98.0027261,118.426357 L97.6432411,121.88416 C97.3225824,125.071393 97.18159,127.139062 97.0997629,130.176886 C97.0521444,131.984225 97.3380622,132.86494 97.8174121,133.219438 C98.1599622,133.472766 98.6376389,133.56913 99.8205373,133.609065 L101.038873,133.63997 C101.152967,133.643971 101.257878,133.648569 101.373817,133.654489 C103.775669,133.778975 105.366339,135.112711 106.169673,137.23959 C106.689715,138.616434 106.8337,140.006941 106.8337,141.931 C106.8337,145.529303 103.55895,147.303679 98.4810014,147.776694 C95.1283566,148.088995 90.7821784,147.74815 89.1775094,147.216451 C88.0426365,146.842642 87.2076403,146.050157 86.6535951,144.978663 C86.3339723,144.36053 86.5759628,143.600329 87.1940959,143.280706 C87.812229,142.961083 88.5724304,143.203074 88.8920532,143.821207 C89.1619863,144.343243 89.5087847,144.672385 89.9680042,144.823647 C91.2115401,145.235684 95.217113,145.549818 98.2472736,145.267556 C102.168777,144.902266 104.3137,143.74007 104.3137,141.931 C104.3137,138.238427 103.578577,136.292142 101.244343,136.17116 L100.834584,136.154714 L99.6815309,136.126181 C97.9873871,136.068398 97.2001516,135.897202 96.3190132,135.245567 C95.0490031,134.306347 94.5135448,132.65697 94.5806568,130.109773 L94.6109722,129.107907 C94.6987137,126.518264 94.8451735,124.52302 95.1346764,121.644067 L95.4829472,118.296567 C95.8796898,114.401251 96.0484682,111.871112 96.1138178,108.08293 L96.1237731,107.439468 L96.0355731,99.2494684 C96.0322696,98.9427169 96.1409279,98.6468972 96.3386081,98.4161617 L96.5196243,98.2227774 C96.5655431,98.1701389 96.6267139,98.0972838 96.7020484,98.0028382 C96.9787564,97.6559339 97.2943192,97.2009267 97.6398507,96.6268374 C98.656743,94.9373041 99.6853463,92.6410868 100.653229,89.6515762 C100.891692,88.9150354 101.123693,88.1437905 101.348575,87.3370644 Z" id="Path" fill="#000000" fill-rule="nonzero"></path>
                <path d="M77.8033,46.3915 C88.5511,56.6479 99.0469,61.1146 111.4264,54.0775" id="Path" fill-rule="nonzero"></path>
                <path d="M76.4359761,45.0866915 C77.1566019,44.3315393 78.3529564,44.3035502 79.1081085,45.0241761 L79.862963,45.7350144 C90.8927475,55.9811969 100.122575,58.329115 110.492392,52.4344149 C111.399843,51.9185764 112.553647,52.236041 113.069485,53.1434918 C113.585324,54.0509427 113.267859,55.2047466 112.360408,55.7205851 C100.073942,62.7048003 88.9494633,59.6405251 76.4984915,47.7588239 C75.7433393,47.0381981 75.7153502,45.8418436 76.4359761,45.0866915 Z" id="Path" fill="#000000" fill-rule="nonzero"></path>
                <path d="M137.6092,36.7084 C132.6574,35.8516 132.6826,31.5739 134.8372,29.1862 L139.8331,32.3362 L137.6092,36.7084 Z" id="Path" stroke="#000000" stroke-width="2.52" fill="#000000" stroke-linecap="round" stroke-linejoin="round"></path>
                <path d="M65.4931,135.9271 C65.4931,135.9271 75.2077,134.5222 78.3073,134.5411 C81.4069,134.56 85.4704,135.1711 87.1273,138.3652 C88.3432,140.7403 88.192,142.7311 87.6502,144.0919 C86.7115,146.4229 83.8702,146.3221 83.8702,146.3221 L57.1582,146.3221 C57.1582,146.3221 52.4017,146.0386 52.7041,140.293" id="Path" fill-rule="nonzero"></path>
                <path d="M65.4931,135.9271 C65.4931,135.9271 75.2077,134.5222 78.3073,134.5411 C81.4069,134.56 85.4704,135.1711 87.1273,138.3652 C88.3432,140.7403 88.192,142.7311 87.6502,144.0919 C86.7115,146.4229 83.8702,146.3221 83.8702,146.3221 L57.1582,146.3221 C57.1582,146.3221 52.4017,146.0386 52.7041,140.293" id="Path" stroke="#000000" stroke-width="2.2932" stroke-linecap="round" stroke-linejoin="round"></path>
                <path d="M46.6813,106.7833 C46.4734,106.1533 54.7705,92.9233 66.8413,92.9233 C81.2242,92.9233 86.8438,113.266 65.638,135.2089" id="Path" fill-rule="nonzero"></path>
                <path d="M66.8413,91.7767 C74.6504344,91.7767 80.1357084,97.3408463 80.7291723,105.756859 C81.3627848,114.742225 76.5066578,125.612414 66.4624985,136.005702 C66.0224368,136.46106 65.2965558,136.47346 64.8411978,136.033399 C64.3858398,135.593337 64.3734398,134.867456 64.8135015,134.412098 C74.4388863,124.452141 79.024735,114.186956 78.4416527,105.918166 C77.9300431,98.6629444 73.4021055,94.0699 66.8413,94.0699 C61.8670467,94.0699 57.1307377,96.4651186 52.9473625,100.447521 C51.4054094,101.915398 50.0389062,103.515748 48.9831463,105.012729 C48.6256396,105.519644 48.3239985,105.98787 48.1028007,106.371817 L47.9990192,106.556557 C47.961979,106.624363 47.929164,106.686819 47.9009476,106.742821 L47.819,106.915 L47.80284,107.022599 C47.7285703,107.369087 47.4953168,107.672867 47.1571517,107.826603 L47.0406186,107.872144 C46.4392665,108.07059 45.790902,107.743971 45.5924558,107.142619 C45.2088176,105.980079 48.067247,101.927059 51.3662125,98.7865786 C55.9383988,94.4340435 61.193034,91.7767 66.8413,91.7767 Z" id="Path" fill="#000000" fill-rule="nonzero"></path>
                <path d="M135.883737,40.3599112 C136.511402,40.4438237 136.952201,41.0206716 136.868289,41.648337 C136.774774,42.3478256 136.415166,43.2955663 135.601936,44.2293105 C134.019202,46.0465959 131.358409,46.9333054 127.482376,46.4882213 C125.846889,46.266661 124.522712,46.0124851 123.353004,45.7112053 C122.978392,45.6147172 122.626874,45.5156124 122.267893,45.4063327 L121.363684,45.1160483 C121.014264,44.9996984 120.558347,44.8467875 120.431044,44.8054166 C119.379146,44.4635714 118.586223,44.28306 117.435462,44.1612148 C115.909521,43.9994982 114.886737,44.7934653 114.168425,46.3836532 C113.917049,46.9401457 113.729531,47.5477312 113.599641,48.1568603 C113.522116,48.5204178 113.482084,48.7963112 113.456322,49.0296038 C112.962242,51.8186847 113.038561,55.073847 113.57864,59.9972032 L113.798722,61.8949332 L114.290394,65.9128329 C114.687312,69.250267 114.832267,70.95347 114.854493,72.7679482 L114.857465,73.1737068 L114.998392,75.3872054 L114.988395,75.8583735 C114.870511,79.9629521 113.933335,84.6690996 111.62638,94.0653108 L110.579422,98.3384664 C108.366775,107.480977 107.646748,111.471606 107.758369,114.924598 L107.851416,117.107063 L107.969956,119.484394 C108.061991,121.179106 108.181323,123.152833 108.2919,124.918757 L108.608851,129.821482 C108.703511,131.702837 109.446553,132.304328 112.190684,132.963526 L113.434519,133.247489 C117.829916,134.263775 119.899268,136.028281 120.037984,140.642917 C120.121651,143.431813 118.587817,145.32237 116.022531,146.354241 C114.379781,147.015028 112.574072,147.263285 110.603282,147.298047 L109.86771,147.262696 C109.813867,147.259483 109.75811,147.256043 109.700561,147.252369 C109.028681,147.209476 108.355999,147.148901 107.722873,147.066997 C106.719667,146.937218 105.90809,146.767431 105.313254,146.530526 L104.889567,146.354512 C103.624958,145.803455 103.090623,145.298972 103.233159,144.45681 L103.252982,144.363215 C103.25874,144.340509 103.26557,144.318726 103.279228,144.27516 C103.484203,143.676002 104.136082,143.356453 104.73524,143.561428 C104.974904,143.643418 105.169829,143.796913 105.304343,143.989936 L105.315,144.007 L105.334935,144.019619 C105.443896,144.083896 105.613496,144.168596 105.848333,144.270222 L106.161746,144.400074 C106.535108,144.548772 107.189668,144.68571 108.01708,144.792748 C108.450788,144.848854 108.91092,144.894552 109.377994,144.930756 L109.846662,144.963828 C110.222579,144.987827 110.513206,145.00094 110.617865,145.005593 C114.887143,144.927258 117.83669,143.740819 117.745818,140.711751 C117.647022,137.425152 116.472421,136.343528 113.175719,135.542816 L112.227921,135.325916 C108.233049,134.431416 106.568264,133.36543 106.333318,130.176179 L105.913909,123.621228 C105.789144,121.581671 105.665091,119.440942 105.590491,117.857148 L105.473866,115.20306 L105.460887,114.809741 C105.362711,110.863493 106.222143,106.460397 108.847868,95.7589543 L109.77556,91.977091 C111.80436,83.6121273 112.621887,79.2911246 112.703705,75.6630717 L112.707735,75.4461932 L112.566707,73.2524091 L112.560386,72.660066 C112.530593,71.0254849 112.394778,69.4266802 112.051113,66.5046938 L111.423826,61.3451677 L111.29633,60.2223911 C110.735532,55.1063492 110.656281,51.6906286 111.185732,48.7222926 C111.265117,47.8777789 111.522563,46.6704605 112.07855,45.4396251 C113.164068,43.0365224 115.01616,41.5987794 117.67703,41.8807738 C118.851615,42.0051416 119.729769,42.1891637 120.749787,42.5013014 L121.67915,42.8037936 C121.972827,42.9018723 122.294739,43.0094389 122.427573,43.0525273 C122.946546,43.2208703 123.412248,43.358419 123.924991,43.4904854 C125.004813,43.7686135 126.241084,44.0059159 127.767035,44.2128775 C130.906617,44.5732009 132.815449,43.9370823 133.872647,42.7232145 C134.156081,42.3977775 134.355777,42.0511052 134.485835,41.7083411 C134.558309,41.5173366 134.589832,41.3854463 134.595311,41.344463 C134.67363,40.7586419 135.181349,40.3356024 135.759012,40.3490019 L135.883737,40.3599112 Z" id="Path" fill="#000000" fill-rule="nonzero"></path>
                <path d="M8.38201384,67.1993184 C8.93583483,66.8922557 9.63371893,67.0922929 9.94078161,67.6461138 C10.2478443,68.1999348 10.0478071,68.8978189 9.49398616,69.2048816 C6.3100182,70.9702133 3.86181264,73.8153689 2.59108704,77.2270114 C2.37005639,77.8204342 1.70981141,78.1223177 1.1163886,77.901287 C0.522965797,77.6802564 0.221082309,77.0200114 0.442112961,76.4265886 C1.90373585,72.5024254 4.71972796,69.2298505 8.38201384,67.1993184 Z" id="Path" fill="#000000" fill-rule="nonzero"></path>
                <path d="M16.5270232,69.444648 C17.0898853,69.1544904 17.7813944,69.3755611 18.071552,69.9384232 C18.3617096,70.5012853 18.1406389,71.1927944 17.5777768,71.482952 L16.5499055,71.9879349 C16.029174,72.2490495 15.540777,72.51342 15.0337736,72.8160285 C13.6547085,73.6391333 12.3460717,74.6246266 11.1163342,75.8384483 C8.40459202,78.5150938 6.38343932,81.9996616 5.30245161,86.4825812 C5.15400783,87.0981863 4.53462385,87.4768954 3.91901876,87.3284516 C3.30341368,87.1800078 2.92470461,86.5606238 3.07314839,85.9450188 C4.25647459,81.0376954 6.49574824,77.1770762 9.50539276,74.2063839 C10.8741147,72.8553766 12.3287642,71.7599257 13.8584858,70.8469006 C14.2777773,70.5966436 14.6844623,70.3706806 15.1011451,70.1532226 L15.8309911,69.7855976 C16.1180365,69.6450644 16.4648761,69.4766851 16.5270232,69.444648 Z" id="Path" fill="#000000" fill-rule="nonzero"></path>
                <path d="M108.856,28.8775 C107.8858,29.4256 106.8778,28.8775 106.6069,27.7057 C106.34104,26.4966514 106.840554,25.247866 107.8669,24.5557 C108.8371,24.0076 109.8451,24.5557 110.116,25.7275 C110.38186,26.9365486 109.882346,28.185334 108.856,28.8775" id="Path" fill="#000000" fill-rule="nonzero"></path>
                <path d="M107.833683,23.4280567 C109.378227,23.4062146 110.522132,23.9325352 111.288702,24.825541 C111.743702,25.3555882 111.975624,25.8879783 112.061562,26.2712438 C112.130077,26.5768021 111.937914,26.8800478 111.632356,26.9485622 C111.326798,27.0170765 111.023552,26.8249145 110.955038,26.5193562 C110.90639,26.3023993 110.746106,25.9344558 110.428246,25.5641694 C109.878745,24.9240352 109.054739,24.5449026 107.84932,24.5619488 C107.421665,24.5676968 106.912532,24.6870206 106.341967,24.9095515 C105.747444,25.1414266 105.107285,25.476425 104.446543,25.8874986 C104.085779,26.1119443 103.734985,26.3488843 103.401771,26.5889008 L103.0747,26.8295941 C102.819236,27.0216192 102.633897,27.1697451 102.536139,27.2517653 C102.296246,27.4530394 101.938609,27.4217324 101.737335,27.181839 C101.536061,26.9419457 101.567368,26.5843089 101.807261,26.3830347 L102.040258,26.1945219 C102.105843,26.1428122 102.180323,26.0849627 102.263075,26.0217845 L102.393331,25.923122 C102.845924,25.5829205 103.336049,25.2428306 103.847506,24.9246327 C104.563171,24.4793894 105.262951,24.1131905 105.929916,23.8530618 C106.617118,23.5850405 107.253677,23.4358523 107.833683,23.4280567 Z" id="Path" fill="#000000" fill-rule="nonzero"></path>
                <path d="M70.3378,6.0841 C70.3378,6.0841 79.5106,7.7095 84.9475,14.6332 C89.2441,20.1016 86.2075,20.5804 85.5019,20.7442 C84.7963,20.908 84.7207,20.6812 83.9395,21.4624 C82.6795,22.7224 83.1772,24.7006 83.1772,24.7006 C83.1772,24.7006 78.2128,23.2768 76.8772,19.6984 C75.5416,16.12 72.0766,10.4752 71.2954,9.2719 C70.7668502,8.2815229 70.4412908,7.19561093 70.3378,6.0778" id="Path" fill="#000000" fill-rule="nonzero"></path>
                <path d="M31.3221684,71.1438221 C32.345324,70.5447725 33.4936965,71.7028239 32.8860808,72.7209157 C25.1664977,85.65548 21.6551566,96.1390016 21.2915292,106.069335 C20.9172487,116.271845 23.1750833,124.040987 27.1909993,129.728858 C28.5887709,131.708567 30.1043576,133.289179 31.6300544,134.508365 C32.1622919,134.933676 32.6570194,135.283081 33.0993129,135.560322 L33.2818565,135.672321 C33.4237697,135.75757 33.5352855,135.820386 33.5797946,135.844083 L33.5981665,135.853474 C34.1746557,136.115514 34.4295668,136.795277 34.1675262,137.371766 C33.9054856,137.948256 33.2257228,138.203167 32.6492335,137.941126 L32.4468186,137.840198 C31.9521418,137.576537 31.1074041,137.026155 30.1984863,136.299839 C28.5091234,134.949868 26.8440113,133.213315 25.3176757,131.051517 C21.0090346,124.949049 18.607352,116.684931 18.9998679,105.985342 C19.3322261,96.9089444 22.1686953,87.4475474 28.1959634,76.320499 L28.425,75.899 L28.0859998,76.1699761 C16.8597263,85.2275671 9.72936497,101.302423 10.2874315,113.916906 L10.3094402,114.34559 C11.3920249,132.837783 24.7162526,145.691266 37.8185305,142.443482 C38.4331784,142.291123 39.05496,142.665883 39.2073185,143.28053 C39.359677,143.895178 38.9849174,144.51696 38.3702695,144.669318 C23.7157733,148.301866 9.17926759,134.278935 8.02015695,114.479562 C7.1384526,99.4076923 16.6886592,79.711628 31.3221684,71.1438221 Z" id="Path" fill="#000000" fill-rule="nonzero"></path>
            </g>
        </g>
    </g>
</svg>